<svg id="Calque_1" data-name="Calque 1" xmlns="http://www.w3.org/2000/svg" viewBox="0 0 1920 1080"><defs><style>.cls-1{fill:#4b77be;}.cls-2{fill:none;stroke:#4b77be;stroke-width:10px;}.cls-2,.cls-3,.cls-6{stroke-miterlimit:10;}.cls-3{stroke:#000;stroke-linecap:round;}.cls-4{font-size:36px;font-family:CaviarDreams-Bold, Caviar Dreams;font-weight:700;letter-spacing:0.01em;}.cls-5{font-size:33px;}.cls-6{stroke:#020202;}</style></defs><title>Plan de travail 1</title><path d="M721.13,437.78q-17.49,16.71-40,16.71a57.88,57.88,0,0,1-40.92-98.77,55.62,55.62,0,0,1,40.92-17q22.46,0,42.55,18.34l-11,10q-15.15-13.46-31.58-13.45a43.08,43.08,0,0,0,0,86.16q15.3,0,25.35-8.07V397.5h14.66Z"/><path d="M758.82,390.27Q767,379.16,779,378.59v15.22q-8,.44-12.74,5.17a23.89,23.89,0,0,0-7.43,16.85v37.46H744.16V380.43h14.66Z"/><path class="cls-1" d="M857.36,386.31a40.2,40.2,0,1,1-28.5-11.83A38.93,38.93,0,0,1,857.36,386.31Zm-3.22,28.53a25.21,25.21,0,1,0-7.4,17.84A24.4,24.4,0,0,0,854.14,414.84Z"/><path class="cls-2" d="M828.86,374.48a40.37,40.37,0,1,1-28.46,11.83A38.79,38.79,0,0,1,828.86,374.48Z"/><path class="cls-2" d="M811,397a25.23,25.23,0,1,0,17.88-7.43A24.4,24.4,0,0,0,811,397Z"/><path d="M917.88,431.69V380.43h14.66v50.06a8.74,8.74,0,0,0,2.62,6.48,8.56,8.56,0,0,0,6.23,2.58q8.7,0,8.71-10.83V380.43h14.72v51.05A22.82,22.82,0,0,1,958,447.34a22.47,22.47,0,0,1-16.56,6.94,20.94,20.94,0,0,1-16.07-6.8,21.34,21.34,0,0,1-16.15,6.8,23.45,23.45,0,0,1-23.43-22.8V380.43h14.65v48.29q0,10.83,8.78,10.83A8.61,8.61,0,0,0,915.4,437,8.32,8.32,0,0,0,917.88,431.69Z"/><path d="M1069.16,454.28q-13.8,0-22.23-8.43t-8.64-21.1V380.43H1053v43.76a14.66,14.66,0,0,0,4.6,10.83,15.7,15.7,0,0,0,11.47,4.53,15.19,15.19,0,0,0,10.94-4.5,14.57,14.57,0,0,0,4.63-10.86L1084,304h16l-.68,120.75q-.21,12.67-8.57,21.1T1069.16,454.28Z"/><path d="M1136.23,444.22V524h-14.65V380.43h14.65V387q10.62-12.47,24.71-12.46a40.32,40.32,0,0,1,0,80.64Q1146.86,455.2,1136.23,444.22Zm0-35v11.4a23.44,23.44,0,0,0,6.87,12.17,25.31,25.31,0,1,0,0-35.75A23.43,23.43,0,0,0,1136.23,409.18Z"/><text></text><polygon class="cls-3" points="1092.03 281.38 1078.54 304.75 1105.53 304.75 1092.03 281.38"/><text class="cls-4" transform="translate(957.5 503.5)">pr<tspan class="cls-5" x="36.86" y="0">o</tspan><tspan x="58.32" y="0">jects</tspan></text><line class="cls-6" x1="645" y1="471.5" x2="1177" y2="471.5"/><path d="M1129,543.5a11.5,11.5,0,1,1,11.5-11.5A11.51,11.51,0,0,1,1129,543.5Zm0-16a4.5,4.5,0,1,0,4.5,4.5A4.51,4.51,0,0,0,1129,527.5Z"/></svg>